<svg xmlns="http://www.w3.org/2000/svg" width="1048" height="509" viewBox="0 0 1048 509">
<rect width="100%" height="100%" fill="#ffffff"/>
<svg x="0" y="0"><svg width="509" height="509" viewBox="0 0 509 509">
<rect width="100%" height="100%" fill="#ffffff"/>
<rect x="14.4" y="14.4" width="480.0" height="480.0" fill="none" stroke="#bbbbbb" stroke-width="1"/>
<line x1="158.4" y1="398.4" x2="230.4" y2="398.4" stroke="#111111" stroke-width="3" stroke-linecap="round" />
<line x1="278.4" y1="278.4" x2="350.4" y2="278.4" stroke="#111111" stroke-width="3" stroke-linecap="round" />
<line x1="158.4" y1="230.4" x2="230.4" y2="230.4" stroke="#111111" stroke-width="3" stroke-linecap="round" />
<line x1="278.4" y1="110.4" x2="350.4" y2="110.4" stroke="#111111" stroke-width="3" stroke-linecap="round" />
<line x1="158.4" y1="398.4" x2="158.4" y2="230.4" stroke="#111111" stroke-width="3" stroke-linecap="round" />
<line x1="230.4" y1="398.4" x2="230.4" y2="230.4" stroke="#111111" stroke-width="3" stroke-linecap="round" />
<line x1="278.4" y1="278.4" x2="278.4" y2="110.4" stroke="#111111" stroke-width="3" stroke-linecap="round" />
<line x1="350.4" y1="278.4" x2="350.4" y2="110.4" stroke="#111111" stroke-width="3" stroke-linecap="round" />
<polyline points="62.4,254.4 153.6,254.4 153.6,225.6 273.6,225.6 273.6,283.2 446.4,283.2 446.4,254.4" fill="none" stroke="#d62828" stroke-width="3.5" stroke-linejoin="round" stroke-linecap="round" />
<circle cx="62.4" cy="254.4" r="4.5" fill="#111111"/>
<circle cx="446.4" cy="254.4" r="4.5" fill="#111111"/>
<text x="45.9" y="246.9" font-family="Helvetica, Arial, sans-serif" font-size="14" fill="#111111">A</text>
<text x="454.9" y="246.9" font-family="Helvetica, Arial, sans-serif" font-size="14" fill="#111111">B</text>
</svg>
</svg>
<svg x="539" y="0"><svg width="509" height="509" viewBox="0 0 509 509">
<rect width="100%" height="100%" fill="#ffffff"/>
<rect x="14.4" y="14.4" width="480.0" height="480.0" fill="none" stroke="#bbbbbb" stroke-width="1"/>
<line x1="158.4" y1="398.4" x2="230.4" y2="398.4" stroke="#111111" stroke-width="3" stroke-linecap="round" />
<line x1="278.4" y1="278.4" x2="350.4" y2="278.4" stroke="#111111" stroke-width="3" stroke-linecap="round" />
<line x1="158.4" y1="230.4" x2="230.4" y2="230.4" stroke="#111111" stroke-width="3" stroke-linecap="round" />
<line x1="278.4" y1="110.4" x2="350.4" y2="110.4" stroke="#111111" stroke-width="3" stroke-linecap="round" />
<line x1="158.4" y1="398.4" x2="158.4" y2="230.4" stroke="#111111" stroke-width="3" stroke-linecap="round" />
<line x1="230.4" y1="398.4" x2="230.4" y2="230.4" stroke="#111111" stroke-width="3" stroke-linecap="round" />
<line x1="278.4" y1="278.4" x2="278.4" y2="110.4" stroke="#111111" stroke-width="3" stroke-linecap="round" />
<line x1="350.4" y1="278.4" x2="350.4" y2="110.4" stroke="#111111" stroke-width="3" stroke-linecap="round" />
<polyline points="62.4,254.4 62.4,105.6 446.4,105.6 446.4,254.4" fill="none" stroke="#d62828" stroke-width="3.5" stroke-linejoin="round" stroke-linecap="round" />
<circle cx="62.4" cy="254.4" r="4.5" fill="#111111"/>
<circle cx="446.4" cy="254.4" r="4.5" fill="#111111"/>
<text x="45.9" y="246.9" font-family="Helvetica, Arial, sans-serif" font-size="14" fill="#111111">A</text>
<text x="454.9" y="246.9" font-family="Helvetica, Arial, sans-serif" font-size="14" fill="#111111">B</text>
</svg>
</svg>
</svg>
