<svg xmlns="http://www.w3.org/2000/svg" width="1432" height="228" viewBox="0 0 1432 228">
<rect width="100%" height="100%" fill="#ffffff"/>
<svg x="0" y="0"><svg width="948" height="228" viewBox="0 0 948 228">
<rect width="100%" height="100%" fill="#ffffff"/>
<svg x="0" y="0"><svg width="464" height="228" viewBox="0 0 464 228">
<rect width="100%" height="100%" fill="#ffffff"/>
<rect x="22.1" y="22.1" width="420.0" height="184.2" fill="none" stroke="#bbbbbb" stroke-width="1"/>
<line x1="-66.3" y1="442.1" x2="147.4" y2="442.1" stroke="#111111" stroke-width="3" stroke-linecap="round" />
<line x1="-7.4" y1="368.4" x2="206.3" y2="368.4" stroke="#111111" stroke-width="3" stroke-linecap="round" />
<line x1="-66.3" y1="316.8" x2="147.4" y2="316.8" stroke="#111111" stroke-width="3" stroke-linecap="round" />
<line x1="-7.4" y1="287.4" x2="206.3" y2="287.4" stroke="#111111" stroke-width="3" stroke-linecap="round" />
<line x1="198.9" y1="213.7" x2="302.1" y2="213.7" stroke="#111111" stroke-width="3" stroke-linecap="round" />
<line x1="117.9" y1="110.5" x2="353.7" y2="110.5" stroke="#111111" stroke-width="3" stroke-linecap="round" />
<line x1="471.6" y1="66.3" x2="537.9" y2="66.3" stroke="#111111" stroke-width="3" stroke-linecap="round" />
<line x1="198.9" y1="44.2" x2="302.1" y2="44.2" stroke="#111111" stroke-width="3" stroke-linecap="round" />
<line x1="427.4" y1="44.2" x2="618.9" y2="44.2" stroke="#111111" stroke-width="3" stroke-linecap="round" />
<line x1="117.9" y1="-36.8" x2="353.7" y2="-36.8" stroke="#111111" stroke-width="3" stroke-linecap="round" />
<line x1="471.6" y1="-95.8" x2="537.9" y2="-95.8" stroke="#111111" stroke-width="3" stroke-linecap="round" />
<line x1="-95.8" y1="-103.2" x2="125.3" y2="-103.2" stroke="#111111" stroke-width="3" stroke-linecap="round" />
<line x1="427.4" y1="-103.2" x2="618.9" y2="-103.2" stroke="#111111" stroke-width="3" stroke-linecap="round" />
<line x1="331.6" y1="-162.1" x2="412.6" y2="-162.1" stroke="#111111" stroke-width="3" stroke-linecap="round" />
<line x1="331.6" y1="-250.5" x2="412.6" y2="-250.5" stroke="#111111" stroke-width="3" stroke-linecap="round" />
<line x1="-95.8" y1="-257.9" x2="125.3" y2="-257.9" stroke="#111111" stroke-width="3" stroke-linecap="round" />
<line x1="-95.8" y1="-103.2" x2="-95.8" y2="-257.9" stroke="#111111" stroke-width="3" stroke-linecap="round" />
<line x1="-66.3" y1="442.1" x2="-66.3" y2="316.8" stroke="#111111" stroke-width="3" stroke-linecap="round" />
<line x1="-7.4" y1="368.4" x2="-7.4" y2="287.4" stroke="#111111" stroke-width="3" stroke-linecap="round" />
<line x1="117.9" y1="110.5" x2="117.9" y2="-36.8" stroke="#111111" stroke-width="3" stroke-linecap="round" />
<line x1="125.3" y1="-103.2" x2="125.3" y2="-257.9" stroke="#111111" stroke-width="3" stroke-linecap="round" />
<line x1="147.4" y1="442.1" x2="147.4" y2="316.8" stroke="#111111" stroke-width="3" stroke-linecap="round" />
<line x1="198.9" y1="213.7" x2="198.9" y2="44.2" stroke="#111111" stroke-width="3" stroke-linecap="round" />
<line x1="206.3" y1="368.4" x2="206.3" y2="287.4" stroke="#111111" stroke-width="3" stroke-linecap="round" />
<line x1="302.1" y1="213.7" x2="302.1" y2="44.2" stroke="#111111" stroke-width="3" stroke-linecap="round" />
<line x1="331.6" y1="-162.1" x2="331.6" y2="-250.5" stroke="#111111" stroke-width="3" stroke-linecap="round" />
<line x1="353.7" y1="110.5" x2="353.7" y2="-36.8" stroke="#111111" stroke-width="3" stroke-linecap="round" />
<line x1="412.6" y1="-162.1" x2="412.6" y2="-250.5" stroke="#111111" stroke-width="3" stroke-linecap="round" />
<line x1="427.4" y1="44.2" x2="427.4" y2="-103.2" stroke="#111111" stroke-width="3" stroke-linecap="round" />
<line x1="471.6" y1="66.3" x2="471.6" y2="-95.8" stroke="#111111" stroke-width="3" stroke-linecap="round" />
<line x1="537.9" y1="66.3" x2="537.9" y2="-95.8" stroke="#111111" stroke-width="3" stroke-linecap="round" />
<line x1="618.9" y1="44.2" x2="618.9" y2="-103.2" stroke="#111111" stroke-width="3" stroke-linecap="round" />
<line x1="-103.2" y1="117.9" x2="191.6" y2="117.9" stroke="#1f6fd6" stroke-width="2.2399999999999998" stroke-linecap="round" />
<line x1="176.8" y1="280.0" x2="176.8" y2="117.9" stroke="#1f6fd6" stroke-width="2.2399999999999998" stroke-linecap="round" />
<circle cx="176.8" cy="117.9" r="4.5" fill="#111111"/>
<text x="184.8" y="133.9" font-family="Helvetica, Arial, sans-serif" font-size="14" fill="#111111">Z</text>
<line x1="117.9" y1="110.5" x2="353.7" y2="110.5" stroke="#f28c28" stroke-width="5" stroke-linecap="round" />
</svg>
</svg>
<svg x="484" y="0"><svg width="464" height="228" viewBox="0 0 464 228">
<rect width="100%" height="100%" fill="#ffffff"/>
<rect x="22.1" y="22.1" width="420.0" height="184.2" fill="none" stroke="#bbbbbb" stroke-width="1"/>
<line x1="-66.3" y1="442.1" x2="147.4" y2="442.1" stroke="#111111" stroke-width="3" stroke-linecap="round" />
<line x1="-7.4" y1="368.4" x2="206.3" y2="368.4" stroke="#111111" stroke-width="3" stroke-linecap="round" />
<line x1="-66.3" y1="316.8" x2="147.4" y2="316.8" stroke="#111111" stroke-width="3" stroke-linecap="round" />
<line x1="-7.4" y1="287.4" x2="206.3" y2="287.4" stroke="#111111" stroke-width="3" stroke-linecap="round" />
<line x1="198.9" y1="213.7" x2="302.1" y2="213.7" stroke="#111111" stroke-width="3" stroke-linecap="round" />
<line x1="117.9" y1="110.5" x2="353.7" y2="110.5" stroke="#111111" stroke-width="3" stroke-linecap="round" />
<line x1="471.6" y1="66.3" x2="537.9" y2="66.3" stroke="#111111" stroke-width="3" stroke-linecap="round" />
<line x1="198.9" y1="44.2" x2="302.1" y2="44.2" stroke="#111111" stroke-width="3" stroke-linecap="round" />
<line x1="427.4" y1="44.2" x2="618.9" y2="44.2" stroke="#111111" stroke-width="3" stroke-linecap="round" />
<line x1="117.9" y1="-36.8" x2="353.7" y2="-36.8" stroke="#111111" stroke-width="3" stroke-linecap="round" />
<line x1="471.6" y1="-95.8" x2="537.9" y2="-95.8" stroke="#111111" stroke-width="3" stroke-linecap="round" />
<line x1="-95.8" y1="-103.2" x2="125.3" y2="-103.2" stroke="#111111" stroke-width="3" stroke-linecap="round" />
<line x1="427.4" y1="-103.2" x2="618.9" y2="-103.2" stroke="#111111" stroke-width="3" stroke-linecap="round" />
<line x1="331.6" y1="-162.1" x2="412.6" y2="-162.1" stroke="#111111" stroke-width="3" stroke-linecap="round" />
<line x1="331.6" y1="-250.5" x2="412.6" y2="-250.5" stroke="#111111" stroke-width="3" stroke-linecap="round" />
<line x1="-95.8" y1="-257.9" x2="125.3" y2="-257.9" stroke="#111111" stroke-width="3" stroke-linecap="round" />
<line x1="-95.8" y1="-103.2" x2="-95.8" y2="-257.9" stroke="#111111" stroke-width="3" stroke-linecap="round" />
<line x1="-66.3" y1="442.1" x2="-66.3" y2="316.8" stroke="#111111" stroke-width="3" stroke-linecap="round" />
<line x1="-7.4" y1="368.4" x2="-7.4" y2="287.4" stroke="#111111" stroke-width="3" stroke-linecap="round" />
<line x1="117.9" y1="110.5" x2="117.9" y2="-36.8" stroke="#111111" stroke-width="3" stroke-linecap="round" />
<line x1="125.3" y1="-103.2" x2="125.3" y2="-257.9" stroke="#111111" stroke-width="3" stroke-linecap="round" />
<line x1="147.4" y1="442.1" x2="147.4" y2="316.8" stroke="#111111" stroke-width="3" stroke-linecap="round" />
<line x1="198.9" y1="213.7" x2="198.9" y2="44.2" stroke="#111111" stroke-width="3" stroke-linecap="round" />
<line x1="206.3" y1="368.4" x2="206.3" y2="287.4" stroke="#111111" stroke-width="3" stroke-linecap="round" />
<line x1="302.1" y1="213.7" x2="302.1" y2="44.2" stroke="#111111" stroke-width="3" stroke-linecap="round" />
<line x1="331.6" y1="-162.1" x2="331.6" y2="-250.5" stroke="#111111" stroke-width="3" stroke-linecap="round" />
<line x1="353.7" y1="110.5" x2="353.7" y2="-36.8" stroke="#111111" stroke-width="3" stroke-linecap="round" />
<line x1="412.6" y1="-162.1" x2="412.6" y2="-250.5" stroke="#111111" stroke-width="3" stroke-linecap="round" />
<line x1="427.4" y1="44.2" x2="427.4" y2="-103.2" stroke="#111111" stroke-width="3" stroke-linecap="round" />
<line x1="471.6" y1="66.3" x2="471.6" y2="-95.8" stroke="#111111" stroke-width="3" stroke-linecap="round" />
<line x1="537.9" y1="66.3" x2="537.9" y2="-95.8" stroke="#111111" stroke-width="3" stroke-linecap="round" />
<line x1="618.9" y1="44.2" x2="618.9" y2="-103.2" stroke="#111111" stroke-width="3" stroke-linecap="round" />
<line x1="-103.2" y1="117.9" x2="191.6" y2="117.9" stroke="#1f6fd6" stroke-width="2.2399999999999998" stroke-linecap="round" />
<line x1="176.8" y1="280.0" x2="176.8" y2="117.9" stroke="#1f6fd6" stroke-width="2.2399999999999998" stroke-linecap="round" />
<circle cx="176.8" cy="117.9" r="4.5" fill="#111111"/>
<text x="184.8" y="133.9" font-family="Helvetica, Arial, sans-serif" font-size="14" fill="#111111">Z</text>
<line x1="117.9" y1="110.5" x2="353.7" y2="110.5" stroke="#f28c28" stroke-width="5" stroke-linecap="round" />
<circle cx="110.5" cy="117.9" r="6" fill="none" stroke="#f28c28" stroke-width="2"/>
<circle cx="110.5" cy="117.9" r="3" fill="#1f6fd6"/>
<text x="118.5" y="133.9" font-family="Helvetica, Arial, sans-serif" font-size="14" fill="#111111">e</text>
</svg>
</svg>
</svg>
</svg>
<svg x="968" y="0"><svg width="464" height="228" viewBox="0 0 464 228">
<rect width="100%" height="100%" fill="#ffffff"/>
<rect x="22.1" y="22.1" width="420.0" height="184.2" fill="none" stroke="#bbbbbb" stroke-width="1"/>
<line x1="-66.3" y1="442.1" x2="147.4" y2="442.1" stroke="#111111" stroke-width="3" stroke-linecap="round" />
<line x1="-7.4" y1="368.4" x2="206.3" y2="368.4" stroke="#111111" stroke-width="3" stroke-linecap="round" />
<line x1="-66.3" y1="316.8" x2="147.4" y2="316.8" stroke="#111111" stroke-width="3" stroke-linecap="round" />
<line x1="-7.4" y1="287.4" x2="206.3" y2="287.4" stroke="#111111" stroke-width="3" stroke-linecap="round" />
<line x1="198.9" y1="213.7" x2="302.1" y2="213.7" stroke="#111111" stroke-width="3" stroke-linecap="round" />
<line x1="117.9" y1="110.5" x2="353.7" y2="110.5" stroke="#111111" stroke-width="3" stroke-linecap="round" />
<line x1="471.6" y1="66.3" x2="537.9" y2="66.3" stroke="#111111" stroke-width="3" stroke-linecap="round" />
<line x1="198.9" y1="44.2" x2="302.1" y2="44.2" stroke="#111111" stroke-width="3" stroke-linecap="round" />
<line x1="427.4" y1="44.2" x2="618.9" y2="44.2" stroke="#111111" stroke-width="3" stroke-linecap="round" />
<line x1="117.9" y1="-36.8" x2="353.7" y2="-36.8" stroke="#111111" stroke-width="3" stroke-linecap="round" />
<line x1="471.6" y1="-95.8" x2="537.9" y2="-95.8" stroke="#111111" stroke-width="3" stroke-linecap="round" />
<line x1="-95.8" y1="-103.2" x2="125.3" y2="-103.2" stroke="#111111" stroke-width="3" stroke-linecap="round" />
<line x1="427.4" y1="-103.2" x2="618.9" y2="-103.2" stroke="#111111" stroke-width="3" stroke-linecap="round" />
<line x1="331.6" y1="-162.1" x2="412.6" y2="-162.1" stroke="#111111" stroke-width="3" stroke-linecap="round" />
<line x1="331.6" y1="-250.5" x2="412.6" y2="-250.5" stroke="#111111" stroke-width="3" stroke-linecap="round" />
<line x1="-95.8" y1="-257.9" x2="125.3" y2="-257.9" stroke="#111111" stroke-width="3" stroke-linecap="round" />
<line x1="-95.8" y1="-103.2" x2="-95.8" y2="-257.9" stroke="#111111" stroke-width="3" stroke-linecap="round" />
<line x1="-66.3" y1="442.1" x2="-66.3" y2="316.8" stroke="#111111" stroke-width="3" stroke-linecap="round" />
<line x1="-7.4" y1="368.4" x2="-7.4" y2="287.4" stroke="#111111" stroke-width="3" stroke-linecap="round" />
<line x1="117.9" y1="110.5" x2="117.9" y2="-36.8" stroke="#111111" stroke-width="3" stroke-linecap="round" />
<line x1="125.3" y1="-103.2" x2="125.3" y2="-257.9" stroke="#111111" stroke-width="3" stroke-linecap="round" />
<line x1="147.4" y1="442.1" x2="147.4" y2="316.8" stroke="#111111" stroke-width="3" stroke-linecap="round" />
<line x1="198.9" y1="213.7" x2="198.9" y2="44.2" stroke="#111111" stroke-width="3" stroke-linecap="round" />
<line x1="206.3" y1="368.4" x2="206.3" y2="287.4" stroke="#111111" stroke-width="3" stroke-linecap="round" />
<line x1="302.1" y1="213.7" x2="302.1" y2="44.2" stroke="#111111" stroke-width="3" stroke-linecap="round" />
<line x1="331.6" y1="-162.1" x2="331.6" y2="-250.5" stroke="#111111" stroke-width="3" stroke-linecap="round" />
<line x1="353.7" y1="110.5" x2="353.7" y2="-36.8" stroke="#111111" stroke-width="3" stroke-linecap="round" />
<line x1="412.6" y1="-162.1" x2="412.6" y2="-250.5" stroke="#111111" stroke-width="3" stroke-linecap="round" />
<line x1="427.4" y1="44.2" x2="427.4" y2="-103.2" stroke="#111111" stroke-width="3" stroke-linecap="round" />
<line x1="471.6" y1="66.3" x2="471.6" y2="-95.8" stroke="#111111" stroke-width="3" stroke-linecap="round" />
<line x1="537.9" y1="66.3" x2="537.9" y2="-95.8" stroke="#111111" stroke-width="3" stroke-linecap="round" />
<line x1="618.9" y1="44.2" x2="618.9" y2="-103.2" stroke="#111111" stroke-width="3" stroke-linecap="round" />
<line x1="-103.2" y1="117.9" x2="191.6" y2="117.9" stroke="#1f6fd6" stroke-width="2.2399999999999998" stroke-linecap="round" />
<line x1="176.8" y1="280.0" x2="176.8" y2="117.9" stroke="#1f6fd6" stroke-width="2.2399999999999998" stroke-linecap="round" />
<circle cx="176.8" cy="117.9" r="4.5" fill="#111111"/>
<text x="184.8" y="133.9" font-family="Helvetica, Arial, sans-serif" font-size="14" fill="#111111">Z</text>
<line x1="110.5" y1="280.0" x2="110.5" y2="-95.8" stroke="#1f6fd6" stroke-width="2.2399999999999998" stroke-linecap="round" />
<circle cx="110.5" cy="117.9" r="3" fill="#1f6fd6"/>
<text x="118.5" y="133.9" font-family="Helvetica, Arial, sans-serif" font-size="14" fill="#111111">e</text>
</svg>
</svg>
</svg>
